<svg width="50" height="25" viewBox="0 0 50 25" fill="none" xmlns="http://www.w3.org/2000/svg">
<g clip-path="url(#clip0_5_716)">
<path d="M46.9509 17.3467C46.9509 17.1421 46.9885 16.9489 47.0645 16.7663C47.1396 16.5837 47.245 16.4248 47.3798 16.2903C47.5147 16.1558 47.6731 16.0514 47.857 15.9756C48.04 15.9006 48.2336 15.8623 48.4387 15.8623C48.6429 15.8623 48.8374 15.8998 49.0204 15.9756C49.2034 16.0506 49.3627 16.1558 49.4975 16.2903C49.6323 16.4248 49.7369 16.5837 49.8128 16.7663C49.888 16.9489 49.9264 17.1429 49.9264 17.3467C49.9264 17.5513 49.8888 17.7445 49.8128 17.9271C49.7377 18.1097 49.6323 18.2686 49.4975 18.4031C49.3627 18.5376 49.2034 18.6427 49.0204 18.7177C48.8374 18.7927 48.6429 18.831 48.4387 18.831C48.2336 18.831 48.04 18.7935 47.857 18.7177C47.674 18.6427 47.5147 18.5376 47.3798 18.4031C47.245 18.2686 47.1396 18.1105 47.0645 17.9271C46.9885 17.7445 46.9509 17.5505 46.9509 17.3467Z" fill="black"/>
<path d="M3.07268 12.8024C3.07268 13.62 3.35863 14.3177 3.92971 14.8965C4.50896 15.4744 5.2132 15.7638 6.04082 15.7638C6.85209 15.7638 7.54736 15.4744 8.12742 14.8965C8.70667 14.3186 8.9967 13.6208 8.9967 12.8024V6.29764C8.9967 5.88437 9.14539 5.52897 9.4436 5.23226C9.7418 4.93474 10.0972 4.78638 10.5114 4.78638H10.5359C10.9583 4.78638 11.3096 4.93474 11.5915 5.23226C11.8897 5.52978 12.0384 5.88518 12.0384 6.29764V18.1546C12.0384 19.7905 11.4215 21.2024 10.1879 22.3924C8.98771 23.5654 7.60455 24.1523 6.04001 24.1523C4.79818 24.1523 3.66827 23.8466 2.64948 23.2353C1.65602 22.6402 0.902751 21.843 0.389679 20.8437C0.273666 20.6203 0.215659 20.3978 0.215659 20.1745C0.215659 19.9845 0.257322 19.7946 0.339839 19.6047C0.505688 19.1751 0.794905 18.8906 1.20912 18.7496L1.25896 18.7243C1.44115 18.6665 1.61925 18.6379 1.79327 18.6379C1.97546 18.6379 2.15357 18.6705 2.32759 18.7374C2.66664 18.8776 2.92399 19.1132 3.09719 19.4433C3.3619 19.9389 3.75978 20.3391 4.28919 20.6456C4.82759 20.9594 5.41092 21.1168 6.04001 21.1168C6.82677 21.1168 7.51386 20.8274 8.10128 20.2495C8.69769 19.6544 8.99507 18.9567 8.99507 18.1554V18.0559C8.34066 18.5434 7.35619 18.7871 6.03919 18.7871C4.38315 18.7871 2.96729 18.201 1.79164 17.0281C0.615984 15.8632 0.0285645 14.4547 0.0285645 12.8032V6.29845C0.0285645 5.88518 0.17726 5.52978 0.475463 5.23307C0.773665 4.93555 1.12497 4.78719 1.53102 4.78719H1.5686C1.97383 4.78719 2.32595 4.93555 2.62415 5.23307C2.92236 5.5306 3.07105 5.886 3.07105 6.29845V12.8024H3.07268Z" fill="black"/>
<path d="M21.6054 -0.0302734C22.0098 -0.0302734 22.3587 0.110745 22.6495 0.393596C22.933 0.684598 23.0744 1.03184 23.0744 1.43533V1.45979C23.0744 1.86409 22.933 2.21134 22.6495 2.50153C22.3579 2.78438 22.0098 2.9254 21.6054 2.9254H20.9134C20.2492 2.9254 19.6871 3.15526 19.2255 3.61581C18.7721 4.07636 18.5417 4.52061 18.5335 4.94856H21.6062C22.0106 4.94856 22.3595 5.09365 22.6503 5.38465C22.9338 5.6675 23.0752 6.01067 23.0752 6.41416V6.43862C23.0752 6.84292 22.9338 7.19017 22.6503 7.48036C22.3587 7.77136 22.0106 7.91645 21.6062 7.91645H18.5335V17.4274C18.5335 17.8391 18.3881 18.1831 18.0964 18.4569C17.8048 18.7479 17.4608 18.893 17.0646 18.893H17.0278C16.6307 18.893 16.2868 18.7479 15.9959 18.4569C15.7043 18.1822 15.5588 17.8391 15.5588 17.4274V5.30069C15.5752 3.82286 16.0972 2.56674 17.125 1.53234C18.1691 0.490595 19.4322 -0.0302734 20.9142 -0.0302734H21.6054Z" fill="black"/>
<path d="M30.0034 4.87598C31.9299 4.87598 33.5777 5.55824 34.9462 6.92359C36.3138 8.28894 36.9985 9.93224 36.9985 11.8552C36.9985 13.7781 36.3138 15.4214 34.9462 16.7867C33.5777 18.1521 31.9299 18.8343 30.0034 18.8343C28.0761 18.8343 26.4291 18.1521 25.0606 16.7867C23.6921 15.4214 23.0083 13.7781 23.0083 11.8552C23.0083 9.93306 23.6921 8.28894 25.0606 6.92359C26.4291 5.55824 28.0769 4.87598 30.0034 4.87598ZM30.0034 7.86833C28.8866 7.86833 27.9348 8.26041 27.1496 9.04375C26.3727 9.82709 25.9838 10.7767 25.9838 11.891C25.9838 12.998 26.3727 13.9427 27.1496 14.726C27.9348 15.5094 28.8866 15.9015 30.0034 15.9015C31.1121 15.9015 32.0598 15.5102 32.8449 14.726C33.63 13.9427 34.023 12.998 34.023 11.891C34.023 10.7767 33.63 9.82709 32.8449 9.04375C32.0598 8.26041 31.1129 7.86833 30.0034 7.86833Z" fill="black"/>
<path d="M45.4543 4.84595C45.8587 4.84595 46.2076 4.99104 46.4984 5.28204C46.7819 5.57304 46.9232 5.92029 46.9232 6.32378V6.34824C46.9232 6.75254 46.7811 7.09571 46.4984 7.37775C46.2067 7.66875 45.8587 7.81384 45.4543 7.81384H44.7623C44.0981 7.81384 43.536 8.04371 43.0744 8.50426C42.6209 8.96481 42.3906 9.52643 42.3824 10.1883V17.337C42.3824 17.7487 42.237 18.0927 41.9453 18.3665C41.6536 18.6575 41.3097 18.8026 40.9134 18.8026H40.8767C40.4796 18.8026 40.1357 18.6575 39.8448 18.3665C39.5531 18.0918 39.4077 17.7487 39.4077 17.337V10.1891C39.4241 8.7113 39.9461 7.45111 40.9739 6.40855C42.018 5.36682 43.2811 4.84595 44.7631 4.84595H45.4543Z" fill="black"/>
</g>
<defs>
<clipPath id="clip0_5_716">
<rect width="50" height="25" fill="white"/>
</clipPath>
</defs>
</svg>
